<svg xmlns="http://www.w3.org/2000/svg" viewBox="0 0 1800 1160">
  <rect width="1800" height="1160" fill="#090909"/>
  <g fill="#F2F0EA" font-family="Space Grotesk, Helvetica, sans-serif">
    <text x="92" y="105" font-size="18" font-weight="700" letter-spacing="5">MAYDALABS / IDENTITY EXPLORATION 01</text>
    <text x="92" y="182" font-size="60" font-weight="500" letter-spacing="-2">Three ways to find the signal.</text>
  </g>
  <path d="M92 234H1708" stroke="#F2F0EA" stroke-opacity=".16"/>

  <g transform="translate(92 292)">
    <rect width="505" height="650" rx="32" fill="#10100F" stroke="#F2F0EA" stroke-opacity=".16"/>
    <text x="38" y="54" fill="#F39A36" font-family="monospace" font-size="14" letter-spacing="2">A / SIGNAL FOLD</text>
    <g transform="translate(137 124) scale(2.3)">
      <path d="M14 69V34L35 58L50 35L65 58L86 34V69" stroke="#F2F0EA" stroke-width="10" stroke-linecap="square" stroke-linejoin="miter" fill="none"/>
      <circle cx="86" cy="69" r="6" fill="#F39A36"/>
    </g>
    <text x="38" y="440" fill="#F2F0EA" font-family="Space Grotesk, Helvetica, sans-serif" font-size="38" font-weight="700" letter-spacing="6">MAYDALABS</text>
    <text x="38" y="490" fill="#F2F0EA" fill-opacity=".55" font-family="Space Grotesk, Helvetica, sans-serif" font-size="19">Minimal. Fast. A continuous path from</text>
    <text x="38" y="520" fill="#F2F0EA" fill-opacity=".55" font-family="Space Grotesk, Helvetica, sans-serif" font-size="19">ambiguity to a resolved signal.</text>
    <g transform="translate(38 563)">
      <rect width="70" height="70" rx="18" fill="#F39A36"/>
      <g transform="translate(11 11) scale(.48)">
        <path d="M14 69V34L35 58L50 35L65 58L86 34V69" stroke="#090909" stroke-width="10" stroke-linecap="square" stroke-linejoin="miter" fill="none"/>
        <circle cx="86" cy="69" r="6" fill="#090909"/>
      </g>
      <rect x="88" width="70" height="70" rx="18" fill="#F2F0EA"/>
      <g transform="translate(99 11) scale(.48)">
        <path d="M14 69V34L35 58L50 35L65 58L86 34V69" stroke="#090909" stroke-width="10" stroke-linecap="square" stroke-linejoin="miter" fill="none"/>
        <circle cx="86" cy="69" r="6" fill="#F39A36"/>
      </g>
    </g>
  </g>

  <g transform="translate(647 292)">
    <rect width="505" height="650" rx="32" fill="#10100F" stroke="#F2F0EA" stroke-opacity=".16"/>
    <text x="38" y="54" fill="#F39A36" font-family="monospace" font-size="14" letter-spacing="2">B / SYSTEM GATE</text>
    <g transform="translate(137 124) scale(2.3)">
      <path d="M13 78V22H30L50 50L70 22H87V78H70V49L50 76L30 49V78H13Z" fill="#F2F0EA"/>
      <path d="M43 39L50 50L57 39L50 28L43 39Z" fill="#F39A36"/>
    </g>
    <text x="38" y="440" fill="#F2F0EA" font-family="Space Grotesk, Helvetica, sans-serif" font-size="38" font-weight="700" letter-spacing="6">MAYDALABS</text>
    <text x="38" y="490" fill="#F2F0EA" fill-opacity=".55" font-family="Space Grotesk, Helvetica, sans-serif" font-size="19">Architectural. Assertive. Ideas enter a</text>
    <text x="38" y="520" fill="#F2F0EA" fill-opacity=".55" font-family="Space Grotesk, Helvetica, sans-serif" font-size="19">connected system and leave as products.</text>
    <g transform="translate(38 563)">
      <rect width="70" height="70" rx="18" fill="#F39A36"/>
      <g transform="translate(11 11) scale(.48)">
        <path d="M13 78V22H30L50 50L70 22H87V78H70V49L50 76L30 49V78H13Z" fill="#090909"/>
      </g>
      <rect x="88" width="70" height="70" rx="18" fill="#F2F0EA"/>
      <g transform="translate(99 11) scale(.48)">
        <path d="M13 78V22H30L50 50L70 22H87V78H70V49L50 76L30 49V78H13Z" fill="#090909"/>
        <path d="M43 39L50 50L57 39L50 28L43 39Z" fill="#F39A36"/>
      </g>
    </g>
  </g>

  <g transform="translate(1202 292)">
    <rect width="505" height="650" rx="32" fill="#10100F" stroke="#F2F0EA" stroke-opacity=".16"/>
    <text x="38" y="54" fill="#F39A36" font-family="monospace" font-size="14" letter-spacing="2">C / OPEN ORBIT</text>
    <g transform="translate(137 124) scale(2.3)">
      <path d="M80 69A37 37 0 1 1 79 30" stroke="#F2F0EA" stroke-width="7" stroke-linecap="square" fill="none"/>
      <path d="M28 63V40L50 61L72 40V63" stroke="#F2F0EA" stroke-width="8" stroke-linecap="square" stroke-linejoin="miter" fill="none"/>
      <circle cx="80" cy="69" r="6" fill="#F39A36"/>
    </g>
    <text x="38" y="440" fill="#F2F0EA" font-family="Space Grotesk, Helvetica, sans-serif" font-size="38" font-weight="700" letter-spacing="6">MAYDALABS</text>
    <text x="38" y="490" fill="#F2F0EA" fill-opacity=".55" font-family="Space Grotesk, Helvetica, sans-serif" font-size="19">Ownable. Kinetic. An open system that</text>
    <text x="38" y="520" fill="#F2F0EA" fill-opacity=".55" font-family="Space Grotesk, Helvetica, sans-serif" font-size="19">connects directly to the hero language.</text>
    <g transform="translate(38 563)">
      <rect width="70" height="70" rx="35" fill="#F39A36"/>
      <g transform="translate(11 11) scale(.48)">
        <path d="M80 69A37 37 0 1 1 79 30" stroke="#090909" stroke-width="7" stroke-linecap="square" fill="none"/>
        <path d="M28 63V40L50 61L72 40V63" stroke="#090909" stroke-width="8" stroke-linecap="square" stroke-linejoin="miter" fill="none"/>
        <circle cx="80" cy="69" r="6" fill="#090909"/>
      </g>
      <rect x="88" width="70" height="70" rx="35" fill="#F2F0EA"/>
      <g transform="translate(99 11) scale(.48)">
        <path d="M80 69A37 37 0 1 1 79 30" stroke="#090909" stroke-width="7" stroke-linecap="square" fill="none"/>
        <path d="M28 63V40L50 61L72 40V63" stroke="#090909" stroke-width="8" stroke-linecap="square" stroke-linejoin="miter" fill="none"/>
        <circle cx="80" cy="69" r="6" fill="#F39A36"/>
      </g>
    </g>
  </g>

  <path d="M92 1002H1708" stroke="#F2F0EA" stroke-opacity=".16"/>
  <text x="92" y="1060" fill="#F2F0EA" fill-opacity=".45" font-family="monospace" font-size="16" letter-spacing="2">BLACK / WARM CREAM / SIGNAL ORANGE · VECTOR FIRST · 16PX TO ENVIRONMENTAL SCALE</text>
  <text x="1708" y="1060" text-anchor="end" fill="#F39A36" font-family="monospace" font-size="16" letter-spacing="2">ML / 2026</text>
</svg>
